<svg xmlns="http://www.w3.org/2000/svg" width="1200" height="675" viewBox="0 0 1200 675">
  <rect width="1200" height="675" fill="#f8fafc"/>
  <text x="60" y="70" font-family="Arial" font-size="34" font-weight="700" fill="#0f172a">Local Kubernetes Runtime Evidence</text>
  <text x="60" y="108" font-family="Arial" font-size="18" fill="#475569">Validation screenshots confirmed local nodes, namespaces, pods, deployments, and services.</text>
  <g font-family="Arial">
    <rect x="70" y="155" width="500" height="95" rx="18" fill="#ffffff" stroke="#cbd5e1"/>
    <text x="100" y="195" font-size="22" font-weight="700" fill="#0f172a">Nodes Ready</text>
    <text x="100" y="225" font-size="16" fill="#334155">cka-lab-control-plane, cka-lab-worker, cka-lab-worker2</text>
    <rect x="630" y="155" width="500" height="95" rx="18" fill="#ffffff" stroke="#cbd5e1"/>
    <text x="660" y="195" font-size="22" font-weight="700" fill="#0f172a">Namespaces Active</text>
    <text x="660" y="225" font-size="16" fill="#334155">argocd, church-prod, monitoring, logging, kube-system</text>
    <rect x="70" y="285" width="500" height="95" rx="18" fill="#ffffff" stroke="#cbd5e1"/>
    <text x="100" y="325" font-size="22" font-weight="700" fill="#0f172a">Pods Running</text>
    <text x="100" y="355" font-size="16" fill="#334155">frontend, auth-service, church-core-service, document-service</text>
    <rect x="630" y="285" width="500" height="95" rx="18" fill="#ffffff" stroke="#cbd5e1"/>
    <text x="660" y="325" font-size="22" font-weight="700" fill="#0f172a">Deployments Available</text>
    <text x="660" y="355" font-size="16" fill="#334155">All church-prod deployments reported 1/1 available locally</text>
    <rect x="70" y="415" width="1060" height="110" rx="18" fill="#dbeafe" stroke="#2563eb"/>
    <text x="100" y="460" font-size="22" font-weight="700" fill="#1e3a8a">ClusterIP Services</text>
    <text x="100" y="495" font-size="17" fill="#0f172a">auth-service:4001 • church-core-service:4002 • document-service:4003 • frontend:8080</text>
    <rect x="70" y="565" width="1060" height="60" rx="18" fill="#ecfdf5" stroke="#22c55e"/>
    <text x="100" y="602" font-size="18" font-weight="700" fill="#166534">Result: Kubernetes runtime was stable enough for browser testing, metrics scraping, log collection, and GitOps reconciliation.</text>
  </g>
</svg>
