<svg xmlns="http://www.w3.org/2000/svg" width="1200" height="675" viewBox="0 0 1200 675">
  <rect width="1200" height="675" fill="#f8fafc"/>
  <text x="60" y="70" font-family="Arial, sans-serif" font-size="36" font-weight="700" fill="#0f172a">Local Kubernetes Test Infrastructure — Church App</text>
  <text x="60" y="108" font-family="Arial, sans-serif" font-size="18" fill="#475569">App runs locally in Kubernetes; PostgreSQL remains on OVHcloud</text>
  <rect x="60" y="145" width="250" height="170" rx="20" fill="#dbeafe" stroke="#2563eb"/>
  <text x="85" y="185" font-family="Arial" font-size="20" font-weight="700" fill="#1e3a8a">User / Access</text>
  <text x="85" y="225" font-family="Arial" font-size="16" fill="#0f172a">Admin / Tester</text>
  <text x="85" y="255" font-family="Arial" font-size="16" fill="#0f172a">Local PC + VS Code</text>
  <text x="85" y="285" font-family="Arial" font-size="16" fill="#0f172a">localhost / port-forward</text>
  <rect x="360" y="145" width="360" height="170" rx="20" fill="#dcfce7" stroke="#16a34a"/>
  <text x="385" y="185" font-family="Arial" font-size="20" font-weight="700" fill="#166534">Source Control / CI-CD</text>
  <text x="385" y="225" font-family="Arial" font-size="16" fill="#0f172a">church_app → GitHub Actions</text>
  <text x="385" y="255" font-family="Arial" font-size="16" fill="#0f172a">Build images → Push to ECR</text>
  <text x="385" y="285" font-family="Arial" font-size="16" fill="#0f172a">Update GitOps image tags</text>
  <rect x="770" y="145" width="270" height="170" rx="20" fill="#ffedd5" stroke="#f97316"/>
  <text x="795" y="185" font-family="Arial" font-size="20" font-weight="700" fill="#9a3412">Amazon ECR</text>
  <text x="795" y="225" font-family="Arial" font-size="16" fill="#0f172a">church-frontend</text>
  <text x="795" y="255" font-family="Arial" font-size="16" fill="#0f172a">church-auth-service</text>
  <text x="795" y="285" font-family="Arial" font-size="16" fill="#0f172a">church-core/document</text>
  <rect x="60" y="360" width="850" height="250" rx="24" fill="#eff6ff" stroke="#1d4ed8" stroke-width="2"/>
  <text x="90" y="402" font-family="Arial" font-size="24" font-weight="700" fill="#1e3a8a">Local Kubernetes Cluster (Docker / WSL on Windows PC)</text>
  <rect x="90" y="440" width="160" height="120" rx="16" fill="#ffffff" stroke="#93c5fd"/>
  <text x="115" y="480" font-family="Arial" font-size="17" font-weight="700" fill="#0f172a">argocd</text>
  <text x="115" y="515" font-family="Arial" font-size="15" fill="#334155">Argo CD</text>
  <rect x="285" y="440" width="260" height="120" rx="16" fill="#ffffff" stroke="#93c5fd"/>
  <text x="310" y="480" font-family="Arial" font-size="17" font-weight="700" fill="#0f172a">church-prod</text>
  <text x="310" y="515" font-family="Arial" font-size="15" fill="#334155">frontend, auth, core, document</text>
  <rect x="580" y="440" width="140" height="120" rx="16" fill="#fff7ed" stroke="#fdba74"/>
  <text x="600" y="480" font-family="Arial" font-size="17" font-weight="700" fill="#9a3412">monitoring</text>
  <text x="600" y="515" font-family="Arial" font-size="15" fill="#334155">Prometheus + Grafana</text>
  <rect x="750" y="440" width="130" height="120" rx="16" fill="#f5f3ff" stroke="#c4b5fd"/>
  <text x="770" y="480" font-family="Arial" font-size="17" font-weight="700" fill="#5b21b6">logging</text>
  <text x="770" y="515" font-family="Arial" font-size="15" fill="#334155">Fluent Bit + OpenSearch</text>
  <rect x="950" y="360" width="190" height="250" rx="24" fill="#ecfeff" stroke="#0891b2"/>
  <text x="975" y="402" font-family="Arial" font-size="20" font-weight="700" fill="#155e75">OVHcloud</text>
  <text x="975" y="435" font-family="Arial" font-size="18" font-weight="700" fill="#0f172a">PostgreSQL</text>
  <text x="975" y="480" font-family="Arial" font-size="16" fill="#0f172a">auth_db</text>
  <text x="975" y="515" font-family="Arial" font-size="16" fill="#0f172a">church_core_db</text>
  <text x="975" y="550" font-family="Arial" font-size="16" fill="#0f172a">document_core_db</text>
  <path d="M310 230 H360" stroke="#16a34a" stroke-width="4" marker-end="url(#arrow)"/>
  <path d="M720 230 H770" stroke="#16a34a" stroke-width="4" marker-end="url(#arrow)"/>
  <path d="M905 315 V360" stroke="#16a34a" stroke-width="4" marker-end="url(#arrow)"/>
  <path d="M540 315 V360" stroke="#2563eb" stroke-width="4" stroke-dasharray="8 8" marker-end="url(#arrowBlue)"/>
  <path d="M910 500 H950" stroke="#0891b2" stroke-width="4" marker-end="url(#arrowCyan)"/>
  <defs><marker id="arrow" markerWidth="10" markerHeight="10" refX="9" refY="3" orient="auto"><path d="M0,0 L0,6 L9,3 z" fill="#16a34a"/></marker><marker id="arrowBlue" markerWidth="10" markerHeight="10" refX="9" refY="3" orient="auto"><path d="M0,0 L0,6 L9,3 z" fill="#2563eb"/></marker><marker id="arrowCyan" markerWidth="10" markerHeight="10" refX="9" refY="3" orient="auto"><path d="M0,0 L0,6 L9,3 z" fill="#0891b2"/></marker></defs>
</svg>
